<svg xmlns="http://www.w3.org/2000/svg" viewBox="0 0 128 128">
  <rect width="128" height="128" rx="20" fill="#0c0922"/>
  <rect x="10" y="18" width="24" height="10" rx="3" fill="#ff2d78"/>
  <rect x="38" y="18" width="24" height="10" rx="3" fill="#ffb800"/>
  <rect x="66" y="18" width="24" height="10" rx="3" fill="#39ff14"/>
  <rect x="94" y="18" width="24" height="10" rx="3" fill="#00f0ff"/>
  <rect x="10" y="32" width="24" height="10" rx="3" fill="#00f0ff"/>
  <rect x="38" y="32" width="24" height="10" rx="3" fill="#ff2d78"/>
  <rect x="66" y="32" width="24" height="10" rx="3" fill="#ffb800"/>
  <rect x="94" y="32" width="24" height="10" rx="3" fill="#39ff14"/>
  <rect x="10" y="46" width="24" height="10" rx="3" fill="#39ff14"/>
  <rect x="38" y="46" width="24" height="10" rx="3" fill="#00f0ff"/>
  <rect x="66" y="46" width="24" height="10" rx="3" fill="#ff2d78"/>
  <rect x="94" y="46" width="24" height="10" rx="3" fill="#ffb800"/>
  <rect x="38" y="88" width="24" height="8" rx="4" fill="#fff" opacity="0.85"/>
  <circle cx="58" cy="74" r="5" fill="#fff" opacity="0.9"/>
</svg>
